<svg width="58" height="29" viewBox="0 0 58 29" fill="none" xmlns="http://www.w3.org/2000/svg">
<path d="M28.4297 29H23.3516V22.125H5.5V29H0.421875V14.9961C0.421875 12.9518 0.773438 11.0703 1.47656 9.35156C2.17969 7.63281 3.15625 6.15495 4.40625 4.91797C5.65625 3.68099 7.13411 2.71745 8.83984 2.02734C10.5456 1.33724 12.4076 0.992188 14.4258 0.992188H25.8711C26.2227 0.992188 26.5547 1.05729 26.8672 1.1875C27.1797 1.31771 27.4531 1.5 27.6875 1.73438C27.9219 1.96875 28.1042 2.24219 28.2344 2.55469C28.3646 2.86719 28.4297 3.19922 28.4297 3.55078V29ZM5.5 17.0469H23.3516V6.07031H14.4258C14.2695 6.07031 13.9375 6.09635 13.4297 6.14844C12.9349 6.1875 12.3555 6.29818 11.6914 6.48047C11.0404 6.66276 10.3503 6.94271 9.62109 7.32031C8.89193 7.69792 8.22135 8.21875 7.60938 8.88281C6.9974 9.54688 6.48958 10.3802 6.08594 11.3828C5.69531 12.3724 5.5 13.5768 5.5 14.9961V17.0469ZM57.4336 21.8711C57.4336 23.1862 57.1927 24.2995 56.7109 25.2109C56.2422 26.1094 55.6497 26.8451 54.9336 27.418C54.2305 27.9779 53.4622 28.3815 52.6289 28.6289C51.7956 28.8763 51.0208 29 50.3047 29H34.0156V23.9219H50.3047C50.9948 23.9219 51.5026 23.7461 51.8281 23.3945C52.1667 23.043 52.3359 22.5352 52.3359 21.8711V17.5547H34.0156V12.4375H52.3359V8.16016C52.3359 6.76693 51.6589 6.07031 50.3047 6.07031H34.0156V0.992188H50.3047C51.1771 0.992188 51.9583 1.10286 52.6484 1.32422C53.3385 1.54557 53.944 1.84505 54.4648 2.22266C54.9987 2.58724 55.4544 3.01042 55.832 3.49219C56.2096 3.97396 56.5156 4.48177 56.75 5.01562C56.9844 5.53646 57.1536 6.07031 57.2578 6.61719C57.375 7.15104 57.4336 7.65234 57.4336 8.12109V21.8711Z" fill="white"/>
</svg>
